<svg width="115" height="32" viewBox="0 0 115 32" fill="none" xmlns="http://www.w3.org/2000/svg">
<path d="M9.92444 0.575999H10.7084L6.11644 7.216V12H5.41244V7.216L0.852438 0.575999H1.65244L5.78044 6.624L9.92444 0.575999ZM22.9403 6.288C22.9403 7.12 22.8176 7.904 22.5723 8.64C22.327 9.36533 21.9696 10 21.5003 10.544C21.0416 11.0773 20.4763 11.4987 19.8043 11.808C19.1323 12.1173 18.3696 12.272 17.5163 12.272C16.663 12.272 15.895 12.1173 15.2123 11.808C14.5403 11.4987 13.9696 11.0773 13.5003 10.544C13.0416 10 12.6896 9.36533 12.4443 8.64C12.199 7.904 12.0763 7.12 12.0763 6.288C12.0763 5.456 12.199 4.67733 12.4443 3.952C12.6896 3.216 13.0416 2.58133 13.5003 2.048C13.9696 1.504 14.5403 1.07733 15.2123 0.768C15.895 0.458666 16.663 0.304 17.5163 0.304C18.3696 0.304 19.1323 0.458666 19.8043 0.768C20.4763 1.07733 21.0416 1.504 21.5003 2.048C21.9696 2.58133 22.327 3.216 22.5723 3.952C22.8176 4.67733 22.9403 5.456 22.9403 6.288ZM12.7803 6.288C12.7803 7.024 12.887 7.71733 13.1003 8.368C13.3136 9.01867 13.623 9.58933 14.0283 10.08C14.4336 10.56 14.9296 10.944 15.5163 11.232C16.103 11.52 16.7696 11.664 17.5163 11.664C18.263 11.664 18.9243 11.52 19.5003 11.232C20.087 10.944 20.583 10.56 20.9883 10.08C21.3936 9.58933 21.703 9.01867 21.9163 8.368C22.1296 7.71733 22.2363 7.024 22.2363 6.288C22.2363 5.552 22.1296 4.85867 21.9163 4.208C21.703 3.55733 21.3936 2.992 20.9883 2.512C20.583 2.02133 20.087 1.632 19.5003 1.344C18.9243 1.056 18.263 0.912 17.5163 0.912C16.7696 0.912 16.103 1.056 15.5163 1.344C14.9296 1.632 14.4336 2.02133 14.0283 2.512C13.623 2.992 13.3136 3.55733 13.1003 4.208C12.887 4.85867 12.7803 5.552 12.7803 6.288ZM27.1217 0.575999V7.424C27.1217 7.648 27.1324 7.90933 27.1537 8.208C27.175 8.50667 27.2284 8.816 27.3137 9.136C27.399 9.44533 27.5164 9.75467 27.6657 10.064C27.8257 10.3627 28.039 10.6347 28.3057 10.88C28.5724 11.1147 28.8977 11.3067 29.2817 11.456C29.6764 11.5947 30.151 11.664 30.7057 11.664C31.4097 11.664 31.9964 11.568 32.4657 11.376C32.9457 11.1733 33.3297 10.8907 33.6177 10.528C33.9164 10.1547 34.1297 9.70667 34.2577 9.184C34.3857 8.66133 34.4497 8.07467 34.4497 7.424V0.575999H35.1537V7.424C35.1537 8.10667 35.079 8.74133 34.9297 9.328C34.791 9.91467 34.551 10.4267 34.2097 10.864C33.8684 11.3013 33.4097 11.648 32.8337 11.904C32.2684 12.1493 31.559 12.272 30.7057 12.272C30.0337 12.272 29.4577 12.1867 28.9777 12.016C28.4977 11.8453 28.0977 11.6267 27.7777 11.36C27.4684 11.0827 27.223 10.768 27.0417 10.416C26.8604 10.064 26.7217 9.712 26.6257 9.36C26.5297 8.99733 26.471 8.65067 26.4497 8.32C26.4284 7.97867 26.4177 7.68 26.4177 7.424V0.575999H27.1217ZM39.1377 0.575999H43.9057C44.407 0.575999 44.8764 0.629333 45.3137 0.735999C45.751 0.831999 46.135 0.997333 46.4657 1.232C46.7964 1.456 47.0524 1.75467 47.2337 2.128C47.4257 2.50133 47.5217 2.96533 47.5217 3.52C47.5217 4.288 47.303 4.93867 46.8657 5.472C46.439 5.99467 45.8417 6.32 45.0737 6.448V6.48C45.5964 6.544 46.007 6.68267 46.3057 6.896C46.615 7.10933 46.8444 7.37067 46.9937 7.68C47.143 7.98933 47.239 8.33067 47.2817 8.704C47.3244 9.07733 47.3457 9.45067 47.3457 9.824C47.3457 10.048 47.3457 10.2667 47.3457 10.48C47.3457 10.6933 47.3564 10.896 47.3777 11.088C47.399 11.2693 47.431 11.44 47.4737 11.6C47.527 11.76 47.5964 11.8933 47.6817 12H46.8977C46.7484 11.7333 46.663 11.424 46.6417 11.072C46.631 10.7093 46.6257 10.336 46.6257 9.952C46.6257 9.568 46.6097 9.18933 46.5777 8.816C46.5457 8.432 46.4444 8.09067 46.2737 7.792C46.103 7.49333 45.831 7.25333 45.4577 7.072C45.095 6.89067 44.5777 6.8 43.9057 6.8H39.8417V12H39.1377V0.575999ZM43.9057 6.192C44.3217 6.192 44.7057 6.144 45.0577 6.048C45.4204 5.94133 45.7297 5.78133 45.9857 5.568C46.2417 5.35467 46.4444 5.08267 46.5937 4.752C46.743 4.42133 46.8177 4.02667 46.8177 3.568C46.8177 3.14133 46.7377 2.77867 46.5777 2.48C46.4177 2.17067 46.2044 1.92 45.9377 1.728C45.671 1.536 45.3617 1.39733 45.0097 1.312C44.6577 1.22667 44.2897 1.184 43.9057 1.184H39.8417V6.192H43.9057ZM57.6089 0.575999H62.1849C62.8676 0.575999 63.4383 0.661333 63.8969 0.832C64.3556 1.00267 64.7236 1.22667 65.0009 1.504C65.2783 1.78133 65.4756 2.10133 65.5929 2.464C65.7209 2.816 65.7849 3.17333 65.7849 3.536C65.7849 3.84533 65.7316 4.13867 65.6249 4.416C65.5183 4.69333 65.3636 4.93867 65.1609 5.152C64.9689 5.36533 64.7343 5.54667 64.4569 5.696C64.1903 5.83467 63.8916 5.92533 63.5609 5.968L63.5929 6C63.6676 5.98933 63.8436 6.02133 64.1209 6.096C64.3983 6.17067 64.6863 6.31467 64.9849 6.528C65.2943 6.73067 65.5663 7.01867 65.8009 7.392C66.0463 7.75467 66.1689 8.224 66.1689 8.8C66.1689 9.32267 66.0729 9.78133 65.8809 10.176C65.6889 10.5707 65.4169 10.9067 65.0649 11.184C64.7236 11.4507 64.3076 11.6533 63.8169 11.792C63.3263 11.9307 62.7823 12 62.1849 12H57.6089V0.575999ZM62.1849 5.76C63.1556 5.76 63.8809 5.54667 64.3609 5.12C64.8409 4.68267 65.0809 4.112 65.0809 3.408C65.0809 2.992 65.0009 2.64533 64.8409 2.368C64.6809 2.08 64.4676 1.85067 64.2009 1.68C63.9343 1.49867 63.6249 1.37067 63.2729 1.296C62.9316 1.22133 62.5689 1.184 62.1849 1.184H58.3129V5.76H62.1849ZM62.1849 11.392C63.2089 11.392 64.0089 11.1787 64.5849 10.752C65.1716 10.3147 65.4649 9.664 65.4649 8.8C65.4649 8.30933 65.3636 7.90933 65.1609 7.6C64.9583 7.28 64.6969 7.02933 64.3769 6.848C64.0676 6.66667 63.7156 6.544 63.3209 6.48C62.9369 6.40533 62.5583 6.368 62.1849 6.368H58.3129V11.392H62.1849ZM73.0491 0.575999H73.8171L78.3291 12H77.5771L76.1371 8.336H70.6651L69.2091 12H68.4571L73.0491 0.575999ZM75.9131 7.728L73.4651 1.264H73.4331L70.8891 7.728H75.9131ZM80.4142 6.352C80.4142 5.54133 80.5315 4.77333 80.7662 4.048C81.0115 3.312 81.3635 2.66667 81.8222 2.112C82.2809 1.55733 82.8409 1.12 83.5022 0.799999C84.1742 0.469333 84.9422 0.304 85.8062 0.304C86.3929 0.304 86.9529 0.389333 87.4862 0.559999C88.0195 0.730666 88.4942 0.981332 88.9102 1.312C89.3369 1.64267 89.6942 2.04267 89.9822 2.512C90.2702 2.98133 90.4622 3.51467 90.5582 4.112H89.8862C89.6195 3.10933 89.1395 2.32533 88.4462 1.76C87.7529 1.19467 86.8782 0.912 85.8222 0.912C85.0542 0.912 84.3769 1.06133 83.7902 1.36C83.2035 1.65867 82.7129 2.05867 82.3182 2.56C81.9235 3.06133 81.6249 3.64267 81.4222 4.304C81.2195 4.95467 81.1182 5.63733 81.1182 6.352C81.1182 7.07733 81.2142 7.76533 81.4062 8.416C81.6089 9.056 81.9022 9.616 82.2862 10.096C82.6809 10.576 83.1715 10.96 83.7582 11.248C84.3449 11.5253 85.0329 11.664 85.8222 11.664C86.5049 11.664 87.1182 11.552 87.6622 11.328C88.2062 11.104 88.6649 10.7893 89.0382 10.384C89.4222 9.97867 89.7102 9.49333 89.9022 8.928C90.0942 8.352 90.1742 7.712 90.1422 7.008H85.9342V6.4H90.7502V12H90.1422V9.568H90.1102C89.9715 9.984 89.7635 10.3627 89.4862 10.704C89.2089 11.0347 88.8782 11.3173 88.4942 11.552C88.1209 11.776 87.6995 11.952 87.2302 12.08C86.7715 12.208 86.2915 12.272 85.7902 12.272C84.9262 12.272 84.1582 12.1173 83.4862 11.808C82.8249 11.4987 82.2649 11.0773 81.8062 10.544C81.3475 10.0107 81.0009 9.38667 80.7662 8.672C80.5315 7.94667 80.4142 7.17333 80.4142 6.352ZM101.083 0.575999H101.787V12H101.083V0.575999ZM113.227 3.84C113.206 3.34933 113.099 2.92267 112.907 2.56C112.726 2.19733 112.475 1.89333 112.155 1.648C111.835 1.40267 111.451 1.22133 111.003 1.104C110.566 0.976 110.086 0.912 109.563 0.912C109.243 0.912 108.897 0.949333 108.523 1.024C108.161 1.09867 107.819 1.232 107.499 1.424C107.19 1.60533 106.934 1.856 106.731 2.176C106.529 2.48533 106.427 2.87467 106.427 3.344C106.427 3.80267 106.539 4.176 106.763 4.464C106.987 4.752 107.281 4.98667 107.643 5.168C108.006 5.33867 108.422 5.47733 108.891 5.584C109.361 5.69067 109.835 5.792 110.315 5.888C110.806 5.984 111.281 6.10133 111.739 6.24C112.209 6.368 112.625 6.54933 112.987 6.784C113.361 7.008 113.659 7.30667 113.883 7.68C114.107 8.04267 114.219 8.50133 114.219 9.056C114.219 9.65333 114.091 10.1547 113.835 10.56C113.579 10.9653 113.254 11.296 112.859 11.552C112.475 11.808 112.043 11.9893 111.563 12.096C111.094 12.2133 110.641 12.272 110.203 12.272C109.531 12.272 108.902 12.1973 108.315 12.048C107.729 11.9093 107.217 11.68 106.779 11.36C106.342 11.0293 105.995 10.608 105.739 10.096C105.494 9.584 105.377 8.96 105.387 8.224H106.091C106.059 8.85333 106.15 9.38667 106.363 9.824C106.577 10.2507 106.87 10.6027 107.243 10.88C107.627 11.1573 108.075 11.36 108.587 11.488C109.099 11.6053 109.638 11.664 110.203 11.664C110.545 11.664 110.907 11.6213 111.291 11.536C111.686 11.4507 112.043 11.3067 112.363 11.104C112.694 10.9013 112.966 10.6347 113.179 10.304C113.403 9.97333 113.515 9.55733 113.515 9.056C113.515 8.576 113.403 8.18667 113.179 7.888C112.955 7.57867 112.657 7.33333 112.283 7.152C111.921 6.96 111.505 6.81067 111.035 6.704C110.577 6.58667 110.102 6.48 109.611 6.384C109.131 6.288 108.657 6.176 108.187 6.048C107.718 5.92 107.302 5.74933 106.939 5.536C106.577 5.312 106.283 5.02933 106.059 4.688C105.835 4.336 105.723 3.888 105.723 3.344C105.723 2.8 105.835 2.336 106.059 1.952C106.294 1.55733 106.593 1.24267 106.955 1.008C107.329 0.762666 107.745 0.586666 108.203 0.48C108.662 0.362666 109.115 0.304 109.563 0.304C110.161 0.304 110.715 0.373333 111.227 0.511999C111.75 0.639999 112.203 0.848 112.587 1.136C112.982 1.41333 113.297 1.776 113.531 2.224C113.766 2.672 113.899 3.21067 113.931 3.84H113.227ZM31.5133 20.576H39.1933V21.184H32.2173V25.76H38.7773V26.368H32.2173V31.392H39.2733V32H31.5133V20.576ZM42.4364 20.576H43.4444L47.9084 31.216H47.9404L52.3564 20.576H53.3644V32H52.6604V21.44H52.6284L48.2764 32H47.5724L43.1724 21.44H43.1404V32H42.4364V20.576ZM57.3439 20.576H62.2079C62.5279 20.576 62.8799 20.6133 63.2639 20.688C63.6586 20.7627 64.0213 20.9173 64.3519 21.152C64.6933 21.376 64.9759 21.7013 65.1999 22.128C65.4239 22.544 65.5359 23.0933 65.5359 23.776C65.5359 24.7787 65.2266 25.552 64.6079 26.096C63.9893 26.64 63.1039 26.912 61.9519 26.912H58.0479V32H57.3439V20.576ZM58.0479 26.304H62.0639C62.5759 26.304 63.0079 26.2293 63.3599 26.08C63.7226 25.92 64.0106 25.7173 64.2239 25.472C64.4373 25.2267 64.5919 24.9547 64.6879 24.656C64.7839 24.3573 64.8319 24.0587 64.8319 23.76C64.8319 23.5467 64.7999 23.296 64.7359 23.008C64.6719 22.7093 64.5439 22.4267 64.3519 22.16C64.1599 21.8827 63.8879 21.6533 63.5359 21.472C63.1946 21.28 62.7359 21.184 62.1599 21.184H58.0479V26.304ZM67.5351 21.184V20.576H76.2871V21.184H72.2551V32H71.5511V21.184H67.5351ZM87.0432 20.576H87.8272L83.2352 27.216V32H82.5312V27.216L77.9712 20.576H78.7712L82.8992 26.624L87.0432 20.576Z" fill="black"/>
</svg>
