<svg width="315" height="51" viewBox="0 0 315 51" fill="none" xmlns="http://www.w3.org/2000/svg">
<path d="M1.512 0.863999H13.032V1.776H2.568V8.64H12.408V9.552H2.568V17.088H13.152V18H1.512V0.863999ZM17.8717 8.496H17.9197C18.0157 8.192 18.1757 7.856 18.3997 7.488C18.6237 7.12 18.9197 6.784 19.2877 6.48C19.6557 6.16 20.0957 5.896 20.6077 5.688C21.1357 5.48 21.7357 5.376 22.4077 5.376C23.3517 5.376 24.1677 5.552 24.8557 5.904C25.5597 6.256 26.1357 6.728 26.5837 7.32C27.0477 7.912 27.3917 8.6 27.6157 9.384C27.8397 10.168 27.9517 10.992 27.9517 11.856C27.9517 12.8 27.8397 13.664 27.6157 14.448C27.3917 15.232 27.0477 15.912 26.5837 16.488C26.1357 17.048 25.5597 17.488 24.8557 17.808C24.1677 18.128 23.3517 18.288 22.4077 18.288C21.3837 18.288 20.4717 18.064 19.6717 17.616C18.8717 17.168 18.2877 16.44 17.9197 15.432H17.8717V22.416H16.9597V5.664H17.8717V8.496ZM22.4077 17.496C23.2077 17.496 23.8957 17.344 24.4717 17.04C25.0637 16.736 25.5437 16.328 25.9117 15.816C26.2957 15.304 26.5757 14.712 26.7517 14.04C26.9437 13.352 27.0397 12.624 27.0397 11.856C27.0397 11.152 26.9517 10.464 26.7757 9.792C26.5997 9.104 26.3277 8.496 25.9597 7.968C25.5917 7.424 25.1117 6.992 24.5197 6.672C23.9437 6.336 23.2397 6.168 22.4077 6.168C21.5917 6.168 20.8957 6.328 20.3197 6.648C19.7437 6.968 19.2717 7.392 18.9037 7.92C18.5517 8.448 18.2957 9.056 18.1357 9.744C17.9757 10.416 17.8957 11.12 17.8957 11.856C17.8957 12.592 17.9677 13.304 18.1117 13.992C18.2557 14.664 18.4957 15.264 18.8317 15.792C19.1837 16.304 19.6477 16.72 20.2237 17.04C20.8157 17.344 21.5437 17.496 22.4077 17.496ZM32.2656 3.336V0.863999H33.1776V3.336H32.2656ZM32.2656 18V5.664H33.1776V18H32.2656ZM47.3389 9.48C47.2909 8.936 47.1469 8.456 46.9069 8.04C46.6829 7.624 46.3869 7.28 46.0189 7.008C45.6509 6.736 45.2189 6.528 44.7229 6.384C44.2429 6.24 43.7229 6.168 43.1629 6.168C42.3949 6.168 41.7149 6.328 41.1229 6.648C40.5309 6.952 40.0349 7.368 39.6349 7.896C39.2349 8.408 38.9309 9 38.7229 9.672C38.5149 10.328 38.4109 11.008 38.4109 11.712C38.4109 12.544 38.5069 13.312 38.6989 14.016C38.8909 14.72 39.1869 15.336 39.5869 15.864C39.9869 16.376 40.4829 16.776 41.0749 17.064C41.6669 17.352 42.3629 17.496 43.1629 17.496C43.7389 17.496 44.2669 17.4 44.7469 17.208C45.2429 17.016 45.6749 16.752 46.0429 16.416C46.4269 16.08 46.7389 15.68 46.9789 15.216C47.2189 14.736 47.3789 14.216 47.4589 13.656H48.3709C48.2749 14.392 48.0749 15.048 47.7709 15.624C47.4669 16.2 47.0829 16.688 46.6189 17.088C46.1549 17.472 45.6269 17.768 45.0349 17.976C44.4429 18.184 43.8189 18.288 43.1629 18.288C42.1549 18.288 41.2909 18.112 40.5709 17.76C39.8669 17.392 39.2829 16.904 38.8189 16.296C38.3709 15.688 38.0349 14.992 37.8109 14.208C37.6029 13.408 37.4989 12.576 37.4989 11.712C37.4989 10.848 37.6189 10.032 37.8589 9.264C38.1149 8.496 38.4829 7.824 38.9629 7.248C39.4429 6.672 40.0349 6.216 40.7389 5.88C41.4429 5.544 42.2509 5.376 43.1629 5.376C43.8349 5.376 44.4589 5.464 45.0349 5.64C45.6269 5.8 46.1469 6.048 46.5949 6.384C47.0589 6.72 47.4349 7.152 47.7229 7.68C48.0109 8.192 48.1869 8.792 48.2509 9.48H47.3389ZM62.2342 18H61.3222V15.36H61.2742C61.1142 15.824 60.8822 16.24 60.5782 16.608C60.2902 16.96 59.9462 17.264 59.5462 17.52C59.1622 17.776 58.7382 17.968 58.2742 18.096C57.8102 18.224 57.3382 18.288 56.8582 18.288C56.1382 18.288 55.5222 18.2 55.0102 18.024C54.5142 17.848 54.1062 17.616 53.7862 17.328C53.4662 17.04 53.2102 16.72 53.0182 16.368C52.8422 16 52.7142 15.632 52.6342 15.264C52.5542 14.896 52.5062 14.544 52.4902 14.208C52.4742 13.856 52.4662 13.552 52.4662 13.296V5.664H53.3782V13.464C53.3782 13.784 53.4022 14.176 53.4502 14.64C53.4982 15.088 53.6342 15.528 53.8582 15.96C54.0982 16.376 54.4502 16.736 54.9142 17.04C55.3782 17.344 56.0342 17.496 56.8822 17.496C57.5702 17.496 58.1862 17.368 58.7302 17.112C59.2902 16.856 59.7622 16.504 60.1462 16.056C60.5302 15.592 60.8182 15.048 61.0102 14.424C61.2182 13.784 61.3222 13.088 61.3222 12.336V5.664H62.2342V18ZM67.7935 8.4H67.8655C67.9775 8 68.1775 7.624 68.4655 7.272C68.7695 6.92 69.1295 6.616 69.5455 6.36C69.9775 6.104 70.4495 5.912 70.9615 5.784C71.4895 5.64 72.0335 5.576 72.5935 5.592V6.504C72.1135 6.44 71.5615 6.488 70.9375 6.648C70.3295 6.808 69.7455 7.16 69.1855 7.704C68.9615 7.944 68.7615 8.176 68.5855 8.4C68.4255 8.624 68.2895 8.872 68.1775 9.144C68.0655 9.416 67.9775 9.72 67.9135 10.056C67.8495 10.392 67.8095 10.792 67.7935 11.256V18H66.8815V5.664H67.7935V8.4ZM75.6099 11.952V12.096C75.6099 12.816 75.7059 13.504 75.8979 14.16C76.0899 14.816 76.3699 15.392 76.7379 15.888C77.1219 16.384 77.5939 16.776 78.1539 17.064C78.7299 17.352 79.3939 17.496 80.1459 17.496C81.3779 17.496 82.3539 17.176 83.0739 16.536C83.7939 15.88 84.2899 14.976 84.5619 13.824H85.4739C85.2019 15.264 84.6099 16.368 83.6979 17.136C82.8019 17.904 81.6099 18.288 80.1219 18.288C79.2099 18.288 78.4099 18.128 77.7219 17.808C77.0499 17.472 76.4819 17.024 76.0179 16.464C75.5699 15.888 75.2339 15.216 75.0099 14.448C74.7859 13.664 74.6739 12.824 74.6739 11.928C74.6739 11.064 74.7859 10.24 75.0099 9.456C75.2499 8.656 75.6019 7.96 76.0659 7.368C76.5299 6.76 77.1059 6.28 77.7939 5.928C78.4979 5.56 79.3219 5.376 80.2659 5.376C81.1299 5.376 81.8899 5.536 82.5459 5.856C83.2179 6.176 83.7779 6.616 84.2259 7.176C84.6739 7.72 85.0099 8.36 85.2339 9.096C85.4739 9.816 85.5939 10.592 85.5939 11.424C85.5939 11.504 85.5859 11.6 85.5699 11.712C85.5699 11.808 85.5699 11.888 85.5699 11.952H75.6099ZM84.6579 11.16C84.6259 10.488 84.5139 9.856 84.3219 9.264C84.1299 8.656 83.8419 8.128 83.4579 7.68C83.0899 7.216 82.6339 6.848 82.0899 6.576C81.5619 6.304 80.9539 6.168 80.2659 6.168C79.5299 6.168 78.8819 6.312 78.3219 6.6C77.7619 6.872 77.2899 7.24 76.9059 7.704C76.5219 8.152 76.2259 8.68 76.0179 9.288C75.8099 9.896 75.6819 10.52 75.6339 11.16H84.6579ZM101.387 16.944H101.435L104.795 5.664H106.019L109.403 16.944H109.451L112.907 5.664H113.915L109.955 18H108.827L105.443 6.816H105.395L101.987 18H100.835L96.9229 5.664H97.9069L101.387 16.944ZM116.607 11.832C116.607 10.952 116.727 10.128 116.967 9.36C117.223 8.576 117.591 7.888 118.071 7.296C118.551 6.704 119.143 6.24 119.847 5.904C120.551 5.552 121.359 5.376 122.271 5.376C123.183 5.376 123.991 5.552 124.695 5.904C125.399 6.24 125.991 6.704 126.471 7.296C126.951 7.888 127.311 8.576 127.551 9.36C127.807 10.128 127.935 10.952 127.935 11.832C127.935 12.712 127.807 13.544 127.551 14.328C127.311 15.112 126.951 15.8 126.471 16.392C125.991 16.968 125.399 17.432 124.695 17.784C123.991 18.12 123.183 18.288 122.271 18.288C121.359 18.288 120.551 18.12 119.847 17.784C119.143 17.432 118.551 16.968 118.071 16.392C117.591 15.8 117.223 15.112 116.967 14.328C116.727 13.544 116.607 12.712 116.607 11.832ZM117.519 11.832C117.519 12.568 117.623 13.28 117.831 13.968C118.039 14.64 118.343 15.24 118.743 15.768C119.143 16.296 119.639 16.72 120.231 17.04C120.823 17.344 121.503 17.496 122.271 17.496C123.039 17.496 123.719 17.344 124.311 17.04C124.903 16.72 125.399 16.296 125.799 15.768C126.199 15.24 126.503 14.64 126.711 13.968C126.919 13.28 127.023 12.568 127.023 11.832C127.023 11.096 126.919 10.392 126.711 9.72C126.503 9.032 126.199 8.424 125.799 7.896C125.399 7.368 124.903 6.952 124.311 6.648C123.719 6.328 123.039 6.168 122.271 6.168C121.503 6.168 120.823 6.328 120.231 6.648C119.639 6.952 119.143 7.368 118.743 7.896C118.343 8.424 118.039 9.032 117.831 9.72C117.623 10.392 117.519 11.096 117.519 11.832ZM132.956 8.4H133.028C133.14 8 133.34 7.624 133.628 7.272C133.932 6.92 134.292 6.616 134.708 6.36C135.14 6.104 135.612 5.912 136.124 5.784C136.652 5.64 137.196 5.576 137.756 5.592V6.504C137.276 6.44 136.724 6.488 136.1 6.648C135.492 6.808 134.908 7.16 134.348 7.704C134.124 7.944 133.924 8.176 133.748 8.4C133.588 8.624 133.452 8.872 133.34 9.144C133.228 9.416 133.14 9.72 133.076 10.056C133.012 10.392 132.972 10.792 132.956 11.256V18H132.044V5.664H132.956V8.4ZM140.742 0.863999H141.654V12.216L149.262 5.664H150.582L145.182 10.272L150.966 18H149.718L144.462 10.968L141.654 13.344V18H140.742V0.863999ZM154.205 13.896C154.237 14.472 154.365 14.984 154.589 15.432C154.813 15.864 155.101 16.24 155.453 16.56C155.821 16.864 156.245 17.096 156.725 17.256C157.205 17.416 157.725 17.496 158.285 17.496C158.685 17.496 159.109 17.464 159.557 17.4C160.021 17.32 160.445 17.184 160.829 16.992C161.229 16.8 161.557 16.536 161.813 16.2C162.069 15.848 162.197 15.408 162.197 14.88C162.197 14.192 161.989 13.672 161.573 13.32C161.157 12.968 160.629 12.696 159.989 12.504C159.365 12.312 158.685 12.16 157.949 12.048C157.229 11.92 156.549 11.736 155.909 11.496C155.285 11.256 154.765 10.92 154.349 10.488C153.933 10.04 153.725 9.392 153.725 8.544C153.725 7.936 153.861 7.432 154.133 7.032C154.405 6.616 154.749 6.288 155.165 6.048C155.597 5.808 156.077 5.64 156.605 5.544C157.133 5.432 157.661 5.376 158.189 5.376C158.829 5.376 159.429 5.448 159.989 5.592C160.549 5.736 161.029 5.968 161.429 6.288C161.845 6.608 162.165 7.016 162.389 7.512C162.629 8.008 162.749 8.608 162.749 9.312H161.837C161.837 8.752 161.741 8.272 161.549 7.872C161.373 7.472 161.117 7.152 160.781 6.912C160.461 6.656 160.077 6.472 159.629 6.36C159.181 6.232 158.701 6.168 158.189 6.168C157.773 6.168 157.349 6.208 156.917 6.288C156.501 6.368 156.125 6.504 155.789 6.696C155.453 6.888 155.173 7.136 154.949 7.44C154.741 7.744 154.637 8.112 154.637 8.544C154.637 9.04 154.757 9.44 154.997 9.744C155.237 10.048 155.549 10.296 155.933 10.488C156.333 10.664 156.773 10.808 157.253 10.92C157.749 11.032 158.245 11.144 158.741 11.256C159.349 11.368 159.917 11.504 160.445 11.664C160.989 11.808 161.453 12.016 161.837 12.288C162.237 12.544 162.549 12.88 162.773 13.296C162.997 13.712 163.109 14.24 163.109 14.88C163.109 15.552 162.957 16.104 162.653 16.536C162.349 16.968 161.965 17.32 161.501 17.592C161.037 17.848 160.517 18.024 159.941 18.12C159.381 18.232 158.829 18.288 158.285 18.288C157.581 18.288 156.925 18.192 156.317 18C155.725 17.824 155.205 17.552 154.757 17.184C154.309 16.8 153.957 16.336 153.701 15.792C153.445 15.248 153.309 14.616 153.293 13.896H154.205ZM179.019 16.944H179.067L182.427 5.664H183.651L187.035 16.944H187.083L190.539 5.664H191.547L187.587 18H186.459L183.075 6.816H183.027L179.619 18H178.467L174.555 5.664H175.539L179.019 16.944ZM195.032 3.336V0.863999H195.944V3.336H195.032ZM195.032 18V5.664H195.944V18H195.032ZM205.353 6.456H202.665V15.072C202.665 15.568 202.721 15.96 202.833 16.248C202.945 16.536 203.113 16.76 203.337 16.92C203.577 17.064 203.857 17.152 204.177 17.184C204.513 17.216 204.897 17.224 205.329 17.208V18C204.865 18.032 204.409 18.032 203.961 18C203.529 17.952 203.145 17.832 202.809 17.64C202.473 17.432 202.201 17.128 201.993 16.728C201.801 16.328 201.721 15.776 201.753 15.072V6.456H199.473V5.664H201.753V1.824H202.665V5.664H205.353V6.456ZM209.91 0.863999V8.304H209.958C210.118 7.84 210.342 7.432 210.63 7.08C210.934 6.712 211.278 6.4 211.662 6.144C212.062 5.888 212.494 5.696 212.958 5.568C213.422 5.44 213.894 5.376 214.374 5.376C215.094 5.376 215.702 5.464 216.198 5.64C216.71 5.816 217.126 6.048 217.446 6.336C217.766 6.624 218.014 6.952 218.19 7.32C218.382 7.672 218.518 8.032 218.598 8.4C218.678 8.768 218.726 9.128 218.742 9.48C218.758 9.816 218.766 10.112 218.766 10.368V18H217.854V10.2C217.854 9.896 217.83 9.512 217.782 9.048C217.734 8.584 217.59 8.144 217.35 7.728C217.126 7.296 216.774 6.928 216.294 6.624C215.83 6.32 215.182 6.168 214.35 6.168C213.646 6.168 213.022 6.296 212.478 6.552C211.934 6.808 211.47 7.168 211.086 7.632C210.702 8.08 210.406 8.624 210.198 9.264C210.006 9.888 209.91 10.576 209.91 11.328V18H208.998V0.863999H209.91ZM236.599 6.456H233.911V15.072C233.911 15.568 233.967 15.96 234.079 16.248C234.191 16.536 234.359 16.76 234.583 16.92C234.823 17.064 235.103 17.152 235.423 17.184C235.759 17.216 236.143 17.224 236.575 17.208V18C236.111 18.032 235.655 18.032 235.207 18C234.775 17.952 234.391 17.832 234.055 17.64C233.719 17.432 233.447 17.128 233.239 16.728C233.047 16.328 232.967 15.776 232.999 15.072V6.456H230.719V5.664H232.999V1.824H233.911V5.664H236.599V6.456ZM241.156 0.863999V8.304H241.204C241.364 7.84 241.588 7.432 241.876 7.08C242.18 6.712 242.524 6.4 242.908 6.144C243.308 5.888 243.74 5.696 244.204 5.568C244.668 5.44 245.14 5.376 245.62 5.376C246.34 5.376 246.948 5.464 247.444 5.64C247.956 5.816 248.372 6.048 248.692 6.336C249.012 6.624 249.26 6.952 249.436 7.32C249.628 7.672 249.764 8.032 249.844 8.4C249.924 8.768 249.972 9.128 249.988 9.48C250.004 9.816 250.012 10.112 250.012 10.368V18H249.1V10.2C249.1 9.896 249.076 9.512 249.028 9.048C248.98 8.584 248.836 8.144 248.596 7.728C248.372 7.296 248.02 6.928 247.54 6.624C247.076 6.32 246.428 6.168 245.596 6.168C244.892 6.168 244.268 6.296 243.724 6.552C243.18 6.808 242.716 7.168 242.332 7.632C241.948 8.08 241.652 8.624 241.444 9.264C241.252 9.888 241.156 10.576 241.156 11.328V18H240.244V0.863999H241.156ZM255.019 11.952V12.096C255.019 12.816 255.115 13.504 255.307 14.16C255.499 14.816 255.779 15.392 256.147 15.888C256.531 16.384 257.003 16.776 257.563 17.064C258.139 17.352 258.803 17.496 259.555 17.496C260.787 17.496 261.763 17.176 262.483 16.536C263.203 15.88 263.699 14.976 263.971 13.824H264.883C264.611 15.264 264.019 16.368 263.107 17.136C262.211 17.904 261.019 18.288 259.531 18.288C258.619 18.288 257.819 18.128 257.131 17.808C256.459 17.472 255.891 17.024 255.427 16.464C254.979 15.888 254.643 15.216 254.419 14.448C254.195 13.664 254.083 12.824 254.083 11.928C254.083 11.064 254.195 10.24 254.419 9.456C254.659 8.656 255.011 7.96 255.475 7.368C255.939 6.76 256.515 6.28 257.203 5.928C257.907 5.56 258.731 5.376 259.675 5.376C260.539 5.376 261.299 5.536 261.955 5.856C262.627 6.176 263.187 6.616 263.635 7.176C264.083 7.72 264.419 8.36 264.643 9.096C264.883 9.816 265.003 10.592 265.003 11.424C265.003 11.504 264.995 11.6 264.979 11.712C264.979 11.808 264.979 11.888 264.979 11.952H255.019ZM264.067 11.16C264.035 10.488 263.923 9.856 263.731 9.264C263.539 8.656 263.251 8.128 262.867 7.68C262.499 7.216 262.043 6.848 261.499 6.576C260.971 6.304 260.363 6.168 259.675 6.168C258.939 6.168 258.291 6.312 257.731 6.6C257.171 6.872 256.699 7.24 256.315 7.704C255.931 8.152 255.635 8.68 255.427 9.288C255.219 9.896 255.091 10.52 255.043 11.16H264.067ZM282.26 6.456H279.572V15.072C279.572 15.568 279.628 15.96 279.74 16.248C279.852 16.536 280.02 16.76 280.244 16.92C280.484 17.064 280.764 17.152 281.084 17.184C281.42 17.216 281.804 17.224 282.236 17.208V18C281.772 18.032 281.316 18.032 280.868 18C280.436 17.952 280.052 17.832 279.716 17.64C279.38 17.432 279.108 17.128 278.9 16.728C278.708 16.328 278.628 15.776 278.66 15.072V6.456H276.38V5.664H278.66V1.824H279.572V5.664H282.26V6.456ZM285.001 11.832C285.001 10.952 285.121 10.128 285.361 9.36C285.617 8.576 285.985 7.888 286.465 7.296C286.945 6.704 287.537 6.24 288.241 5.904C288.945 5.552 289.753 5.376 290.665 5.376C291.577 5.376 292.385 5.552 293.089 5.904C293.793 6.24 294.385 6.704 294.865 7.296C295.345 7.888 295.705 8.576 295.945 9.36C296.201 10.128 296.329 10.952 296.329 11.832C296.329 12.712 296.201 13.544 295.945 14.328C295.705 15.112 295.345 15.8 294.865 16.392C294.385 16.968 293.793 17.432 293.089 17.784C292.385 18.12 291.577 18.288 290.665 18.288C289.753 18.288 288.945 18.12 288.241 17.784C287.537 17.432 286.945 16.968 286.465 16.392C285.985 15.8 285.617 15.112 285.361 14.328C285.121 13.544 285.001 12.712 285.001 11.832ZM285.913 11.832C285.913 12.568 286.017 13.28 286.225 13.968C286.433 14.64 286.737 15.24 287.137 15.768C287.537 16.296 288.033 16.72 288.625 17.04C289.217 17.344 289.897 17.496 290.665 17.496C291.433 17.496 292.113 17.344 292.705 17.04C293.297 16.72 293.793 16.296 294.193 15.768C294.593 15.24 294.897 14.64 295.105 13.968C295.313 13.28 295.417 12.568 295.417 11.832C295.417 11.096 295.313 10.392 295.105 9.72C294.897 9.032 294.593 8.424 294.193 7.896C293.793 7.368 293.297 6.952 292.705 6.648C292.113 6.328 291.433 6.168 290.665 6.168C289.897 6.168 289.217 6.328 288.625 6.648C288.033 6.952 287.537 7.368 287.137 7.896C286.737 8.424 286.433 9.032 286.225 9.72C286.017 10.392 285.913 11.096 285.913 11.832ZM301.566 8.496H301.614C301.71 8.192 301.87 7.856 302.094 7.488C302.318 7.12 302.614 6.784 302.982 6.48C303.35 6.16 303.79 5.896 304.302 5.688C304.83 5.48 305.43 5.376 306.102 5.376C307.046 5.376 307.862 5.552 308.55 5.904C309.254 6.256 309.83 6.728 310.278 7.32C310.742 7.912 311.086 8.6 311.31 9.384C311.534 10.168 311.646 10.992 311.646 11.856C311.646 12.8 311.534 13.664 311.31 14.448C311.086 15.232 310.742 15.912 310.278 16.488C309.83 17.048 309.254 17.488 308.55 17.808C307.862 18.128 307.046 18.288 306.102 18.288C305.078 18.288 304.166 18.064 303.366 17.616C302.566 17.168 301.982 16.44 301.614 15.432H301.566V22.416H300.654V5.664H301.566V8.496ZM306.102 17.496C306.902 17.496 307.59 17.344 308.166 17.04C308.758 16.736 309.238 16.328 309.606 15.816C309.99 15.304 310.27 14.712 310.446 14.04C310.638 13.352 310.734 12.624 310.734 11.856C310.734 11.152 310.646 10.464 310.47 9.792C310.294 9.104 310.022 8.496 309.654 7.968C309.286 7.424 308.806 6.992 308.214 6.672C307.638 6.336 306.934 6.168 306.102 6.168C305.286 6.168 304.59 6.328 304.014 6.648C303.438 6.968 302.966 7.392 302.598 7.92C302.246 8.448 301.99 9.056 301.83 9.744C301.67 10.416 301.59 11.12 301.59 11.856C301.59 12.592 301.662 13.304 301.806 13.992C301.95 14.664 302.19 15.264 302.526 15.792C302.878 16.304 303.342 16.72 303.918 17.04C304.51 17.344 305.238 17.496 306.102 17.496ZM10.632 41.48C10.584 40.936 10.44 40.456 10.2 40.04C9.976 39.624 9.68 39.28 9.312 39.008C8.944 38.736 8.512 38.528 8.016 38.384C7.536 38.24 7.016 38.168 6.456 38.168C5.688 38.168 5.008 38.328 4.416 38.648C3.824 38.952 3.328 39.368 2.928 39.896C2.528 40.408 2.224 41 2.016 41.672C1.808 42.328 1.704 43.008 1.704 43.712C1.704 44.544 1.8 45.312 1.992 46.016C2.184 46.72 2.48 47.336 2.88 47.864C3.28 48.376 3.776 48.776 4.368 49.064C4.96 49.352 5.656 49.496 6.456 49.496C7.032 49.496 7.56 49.4 8.04 49.208C8.536 49.016 8.968 48.752 9.336 48.416C9.72 48.08 10.032 47.68 10.272 47.216C10.512 46.736 10.672 46.216 10.752 45.656H11.664C11.568 46.392 11.368 47.048 11.064 47.624C10.76 48.2 10.376 48.688 9.912 49.088C9.448 49.472 8.92 49.768 8.328 49.976C7.736 50.184 7.112 50.288 6.456 50.288C5.448 50.288 4.584 50.112 3.864 49.76C3.16 49.392 2.576 48.904 2.112 48.296C1.664 47.688 1.328 46.992 1.104 46.208C0.896 45.408 0.792 44.576 0.792 43.712C0.792 42.848 0.912 42.032 1.152 41.264C1.408 40.496 1.776 39.824 2.256 39.248C2.736 38.672 3.328 38.216 4.032 37.88C4.736 37.544 5.544 37.376 6.456 37.376C7.128 37.376 7.752 37.464 8.328 37.64C8.92 37.8 9.44 38.048 9.888 38.384C10.352 38.72 10.728 39.152 11.016 39.68C11.304 40.192 11.48 40.792 11.544 41.48H10.632ZM16.6713 32.864V40.304H16.7193C16.8793 39.84 17.1033 39.432 17.3913 39.08C17.6953 38.712 18.0393 38.4 18.4233 38.144C18.8233 37.888 19.2553 37.696 19.7193 37.568C20.1833 37.44 20.6553 37.376 21.1353 37.376C21.8553 37.376 22.4633 37.464 22.9593 37.64C23.4713 37.816 23.8873 38.048 24.2073 38.336C24.5273 38.624 24.7753 38.952 24.9513 39.32C25.1433 39.672 25.2793 40.032 25.3593 40.4C25.4393 40.768 25.4873 41.128 25.5033 41.48C25.5193 41.816 25.5273 42.112 25.5273 42.368V50H24.6153V42.2C24.6153 41.896 24.5913 41.512 24.5433 41.048C24.4953 40.584 24.3513 40.144 24.1113 39.728C23.8873 39.296 23.5353 38.928 23.0553 38.624C22.5913 38.32 21.9433 38.168 21.1113 38.168C20.4073 38.168 19.7833 38.296 19.2393 38.552C18.6953 38.808 18.2313 39.168 17.8473 39.632C17.4633 40.08 17.1673 40.624 16.9593 41.264C16.7673 41.888 16.6713 42.576 16.6713 43.328V50H15.7593V32.864H16.6713ZM30.5346 43.952V44.096C30.5346 44.816 30.6306 45.504 30.8226 46.16C31.0146 46.816 31.2946 47.392 31.6626 47.888C32.0466 48.384 32.5186 48.776 33.0786 49.064C33.6546 49.352 34.3186 49.496 35.0706 49.496C36.3026 49.496 37.2786 49.176 37.9986 48.536C38.7186 47.88 39.2146 46.976 39.4866 45.824H40.3986C40.1266 47.264 39.5346 48.368 38.6226 49.136C37.7266 49.904 36.5346 50.288 35.0466 50.288C34.1346 50.288 33.3346 50.128 32.6466 49.808C31.9746 49.472 31.4066 49.024 30.9426 48.464C30.4946 47.888 30.1586 47.216 29.9346 46.448C29.7106 45.664 29.5986 44.824 29.5986 43.928C29.5986 43.064 29.7106 42.24 29.9346 41.456C30.1746 40.656 30.5266 39.96 30.9906 39.368C31.4546 38.76 32.0306 38.28 32.7186 37.928C33.4226 37.56 34.2466 37.376 35.1906 37.376C36.0546 37.376 36.8146 37.536 37.4706 37.856C38.1426 38.176 38.7026 38.616 39.1506 39.176C39.5986 39.72 39.9346 40.36 40.1586 41.096C40.3986 41.816 40.5186 42.592 40.5186 43.424C40.5186 43.504 40.5106 43.6 40.4946 43.712C40.4946 43.808 40.4946 43.888 40.4946 43.952H30.5346ZM39.5826 43.16C39.5506 42.488 39.4386 41.856 39.2466 41.264C39.0546 40.656 38.7666 40.128 38.3826 39.68C38.0146 39.216 37.5586 38.848 37.0146 38.576C36.4866 38.304 35.8786 38.168 35.1906 38.168C34.4546 38.168 33.8066 38.312 33.2466 38.6C32.6866 38.872 32.2146 39.24 31.8306 39.704C31.4466 40.152 31.1506 40.68 30.9426 41.288C30.7346 41.896 30.6066 42.52 30.5586 43.16H39.5826ZM43.2459 38.456V37.664H45.4539V35.12C45.4539 34.688 45.5259 34.32 45.6699 34.016C45.8139 33.696 46.0059 33.44 46.2459 33.248C46.5019 33.056 46.7899 32.912 47.1099 32.816C47.4459 32.72 47.7979 32.672 48.1659 32.672C48.4379 32.672 48.7979 32.712 49.2459 32.792V33.584C48.7979 33.504 48.4379 33.464 48.1659 33.464C47.6539 33.464 47.2219 33.584 46.8699 33.824C46.5339 34.048 46.3659 34.504 46.3659 35.192V37.664H48.9339V38.456H46.3659V50H45.4539V38.456H43.2459ZM61.9107 40.4H61.9827C62.0947 40 62.2947 39.624 62.5827 39.272C62.8867 38.92 63.2467 38.616 63.6627 38.36C64.0947 38.104 64.5667 37.912 65.0787 37.784C65.6067 37.64 66.1507 37.576 66.7107 37.592V38.504C66.2307 38.44 65.6787 38.488 65.0547 38.648C64.4467 38.808 63.8627 39.16 63.3027 39.704C63.0787 39.944 62.8787 40.176 62.7027 40.4C62.5427 40.624 62.4067 40.872 62.2947 41.144C62.1827 41.416 62.0947 41.72 62.0307 42.056C61.9667 42.392 61.9267 42.792 61.9107 43.256V50H60.9987V37.664H61.9107V40.4ZM69.7271 43.952V44.096C69.7271 44.816 69.8231 45.504 70.0151 46.16C70.2071 46.816 70.4871 47.392 70.8551 47.888C71.2391 48.384 71.7111 48.776 72.2711 49.064C72.8471 49.352 73.5111 49.496 74.2631 49.496C75.4951 49.496 76.4711 49.176 77.1911 48.536C77.9111 47.88 78.4071 46.976 78.6791 45.824H79.5911C79.3191 47.264 78.7271 48.368 77.8151 49.136C76.9191 49.904 75.7271 50.288 74.2391 50.288C73.3271 50.288 72.5271 50.128 71.8391 49.808C71.1671 49.472 70.5991 49.024 70.1351 48.464C69.6871 47.888 69.3511 47.216 69.1271 46.448C68.9031 45.664 68.7911 44.824 68.7911 43.928C68.7911 43.064 68.9031 42.24 69.1271 41.456C69.3671 40.656 69.7191 39.96 70.1831 39.368C70.6471 38.76 71.2231 38.28 71.9111 37.928C72.6151 37.56 73.4391 37.376 74.3831 37.376C75.2471 37.376 76.0071 37.536 76.6631 37.856C77.3351 38.176 77.8951 38.616 78.3431 39.176C78.7911 39.72 79.1271 40.36 79.3511 41.096C79.5911 41.816 79.7111 42.592 79.7111 43.424C79.7111 43.504 79.7031 43.6 79.6871 43.712C79.6871 43.808 79.6871 43.888 79.6871 43.952H69.7271ZM78.7751 43.16C78.7431 42.488 78.6311 41.856 78.4391 41.264C78.2471 40.656 77.9591 40.128 77.5751 39.68C77.2071 39.216 76.7511 38.848 76.2071 38.576C75.6791 38.304 75.0711 38.168 74.3831 38.168C73.6471 38.168 72.9991 38.312 72.4391 38.6C71.8791 38.872 71.4071 39.24 71.0231 39.704C70.6391 40.152 70.3431 40.68 70.1351 41.288C69.9271 41.896 69.7991 42.52 69.7511 43.16H78.7751ZM84.2144 45.896C84.2464 46.472 84.3744 46.984 84.5984 47.432C84.8224 47.864 85.1104 48.24 85.4624 48.56C85.8304 48.864 86.2544 49.096 86.7344 49.256C87.2144 49.416 87.7344 49.496 88.2944 49.496C88.6944 49.496 89.1184 49.464 89.5664 49.4C90.0304 49.32 90.4544 49.184 90.8384 48.992C91.2384 48.8 91.5664 48.536 91.8224 48.2C92.0784 47.848 92.2064 47.408 92.2064 46.88C92.2064 46.192 91.9984 45.672 91.5824 45.32C91.1664 44.968 90.6384 44.696 89.9984 44.504C89.3744 44.312 88.6944 44.16 87.9584 44.048C87.2384 43.92 86.5584 43.736 85.9184 43.496C85.2944 43.256 84.7744 42.92 84.3584 42.488C83.9424 42.04 83.7344 41.392 83.7344 40.544C83.7344 39.936 83.8704 39.432 84.1424 39.032C84.4144 38.616 84.7584 38.288 85.1744 38.048C85.6064 37.808 86.0864 37.64 86.6144 37.544C87.1424 37.432 87.6704 37.376 88.1984 37.376C88.8384 37.376 89.4384 37.448 89.9984 37.592C90.5584 37.736 91.0384 37.968 91.4384 38.288C91.8544 38.608 92.1744 39.016 92.3984 39.512C92.6384 40.008 92.7584 40.608 92.7584 41.312H91.8464C91.8464 40.752 91.7504 40.272 91.5584 39.872C91.3824 39.472 91.1264 39.152 90.7904 38.912C90.4704 38.656 90.0864 38.472 89.6384 38.36C89.1904 38.232 88.7104 38.168 88.1984 38.168C87.7824 38.168 87.3584 38.208 86.9264 38.288C86.5104 38.368 86.1344 38.504 85.7984 38.696C85.4624 38.888 85.1824 39.136 84.9584 39.44C84.7504 39.744 84.6464 40.112 84.6464 40.544C84.6464 41.04 84.7664 41.44 85.0064 41.744C85.2464 42.048 85.5584 42.296 85.9424 42.488C86.3424 42.664 86.7824 42.808 87.2624 42.92C87.7584 43.032 88.2544 43.144 88.7504 43.256C89.3584 43.368 89.9264 43.504 90.4544 43.664C90.9984 43.808 91.4624 44.016 91.8464 44.288C92.2464 44.544 92.5584 44.88 92.7824 45.296C93.0064 45.712 93.1184 46.24 93.1184 46.88C93.1184 47.552 92.9664 48.104 92.6624 48.536C92.3584 48.968 91.9744 49.32 91.5104 49.592C91.0464 49.848 90.5264 50.024 89.9504 50.12C89.3904 50.232 88.8384 50.288 88.2944 50.288C87.5904 50.288 86.9344 50.192 86.3264 50C85.7344 49.824 85.2144 49.552 84.7664 49.184C84.3184 48.8 83.9664 48.336 83.7104 47.792C83.4544 47.248 83.3184 46.616 83.3024 45.896H84.2144ZM101.843 38.456H99.1551V47.072C99.1551 47.568 99.2111 47.96 99.3231 48.248C99.4351 48.536 99.6031 48.76 99.8271 48.92C100.067 49.064 100.347 49.152 100.667 49.184C101.003 49.216 101.387 49.224 101.819 49.208V50C101.355 50.032 100.899 50.032 100.451 50C100.019 49.952 99.6351 49.832 99.2991 49.64C98.9631 49.432 98.6911 49.128 98.4831 48.728C98.2911 48.328 98.2111 47.776 98.2431 47.072V38.456H95.9631V37.664H98.2431V33.824H99.1551V37.664H101.843V38.456ZM113.672 47.552H113.624C113.48 47.92 113.272 48.272 113 48.608C112.728 48.928 112.392 49.216 111.992 49.472C111.608 49.728 111.168 49.928 110.672 50.072C110.176 50.216 109.632 50.288 109.04 50.288C107.728 50.288 106.712 50.008 105.992 49.448C105.272 48.872 104.912 47.992 104.912 46.808C104.912 46.088 105.056 45.504 105.344 45.056C105.632 44.592 105.992 44.232 106.424 43.976C106.872 43.704 107.36 43.512 107.888 43.4C108.432 43.288 108.952 43.208 109.448 43.16L110.864 43.04C111.52 42.992 112.032 42.92 112.4 42.824C112.784 42.712 113.072 42.568 113.264 42.392C113.456 42.2 113.576 41.96 113.624 41.672C113.672 41.384 113.696 41.024 113.696 40.592C113.696 40.256 113.632 39.944 113.504 39.656C113.376 39.368 113.176 39.112 112.904 38.888C112.632 38.664 112.28 38.488 111.848 38.36C111.416 38.232 110.888 38.168 110.264 38.168C109.16 38.168 108.264 38.44 107.576 38.984C106.904 39.528 106.536 40.352 106.472 41.456H105.56C105.624 40.096 106.056 39.08 106.856 38.408C107.672 37.72 108.824 37.376 110.312 37.376C111.8 37.376 112.88 37.672 113.552 38.264C114.24 38.84 114.584 39.6 114.584 40.544V47.72C114.584 47.896 114.584 48.072 114.584 48.248C114.6 48.424 114.632 48.584 114.68 48.728C114.728 48.872 114.808 48.992 114.92 49.088C115.032 49.168 115.192 49.208 115.4 49.208C115.56 49.208 115.784 49.184 116.072 49.136V49.904C115.832 49.968 115.584 50 115.328 50C114.96 50 114.664 49.952 114.44 49.856C114.232 49.76 114.072 49.632 113.96 49.472C113.848 49.312 113.768 49.128 113.72 48.92C113.688 48.696 113.672 48.456 113.672 48.2V47.552ZM113.672 42.992C113.448 43.264 113.104 43.448 112.64 43.544C112.192 43.64 111.688 43.712 111.128 43.76L109.592 43.904C109.144 43.952 108.696 44.024 108.248 44.12C107.8 44.2 107.392 44.344 107.024 44.552C106.672 44.76 106.384 45.048 106.16 45.416C105.936 45.768 105.824 46.232 105.824 46.808C105.824 47.72 106.112 48.4 106.688 48.848C107.264 49.28 108.056 49.496 109.064 49.496C110.104 49.496 110.928 49.312 111.536 48.944C112.144 48.56 112.608 48.128 112.928 47.648C113.248 47.152 113.448 46.68 113.528 46.232C113.624 45.768 113.672 45.456 113.672 45.296V42.992ZM129.226 50H128.314V47.36H128.266C128.106 47.824 127.874 48.24 127.57 48.608C127.282 48.96 126.938 49.264 126.538 49.52C126.154 49.776 125.73 49.968 125.266 50.096C124.802 50.224 124.33 50.288 123.85 50.288C123.13 50.288 122.514 50.2 122.002 50.024C121.506 49.848 121.098 49.616 120.778 49.328C120.458 49.04 120.202 48.72 120.01 48.368C119.834 48 119.706 47.632 119.626 47.264C119.546 46.896 119.498 46.544 119.482 46.208C119.466 45.856 119.458 45.552 119.458 45.296V37.664H120.37V45.464C120.37 45.784 120.394 46.176 120.442 46.64C120.49 47.088 120.626 47.528 120.85 47.96C121.09 48.376 121.442 48.736 121.906 49.04C122.37 49.344 123.026 49.496 123.874 49.496C124.562 49.496 125.178 49.368 125.722 49.112C126.282 48.856 126.754 48.504 127.138 48.056C127.522 47.592 127.81 47.048 128.002 46.424C128.21 45.784 128.314 45.088 128.314 44.336V37.664H129.226V50ZM134.785 40.4H134.857C134.969 40 135.169 39.624 135.457 39.272C135.761 38.92 136.121 38.616 136.537 38.36C136.969 38.104 137.441 37.912 137.953 37.784C138.481 37.64 139.025 37.576 139.585 37.592V38.504C139.105 38.44 138.553 38.488 137.929 38.648C137.321 38.808 136.737 39.16 136.177 39.704C135.953 39.944 135.753 40.176 135.577 40.4C135.417 40.624 135.281 40.872 135.169 41.144C135.057 41.416 134.969 41.72 134.905 42.056C134.841 42.392 134.801 42.792 134.785 43.256V50H133.873V37.664H134.785V40.4ZM150.238 47.552H150.19C150.046 47.92 149.838 48.272 149.566 48.608C149.294 48.928 148.958 49.216 148.558 49.472C148.174 49.728 147.734 49.928 147.238 50.072C146.742 50.216 146.198 50.288 145.606 50.288C144.294 50.288 143.278 50.008 142.558 49.448C141.838 48.872 141.478 47.992 141.478 46.808C141.478 46.088 141.622 45.504 141.91 45.056C142.198 44.592 142.558 44.232 142.99 43.976C143.438 43.704 143.926 43.512 144.454 43.4C144.998 43.288 145.518 43.208 146.014 43.16L147.43 43.04C148.086 42.992 148.598 42.92 148.966 42.824C149.35 42.712 149.638 42.568 149.83 42.392C150.022 42.2 150.142 41.96 150.19 41.672C150.238 41.384 150.262 41.024 150.262 40.592C150.262 40.256 150.198 39.944 150.07 39.656C149.942 39.368 149.742 39.112 149.47 38.888C149.198 38.664 148.846 38.488 148.414 38.36C147.982 38.232 147.454 38.168 146.83 38.168C145.726 38.168 144.83 38.44 144.142 38.984C143.47 39.528 143.102 40.352 143.038 41.456H142.126C142.19 40.096 142.622 39.08 143.422 38.408C144.238 37.72 145.39 37.376 146.878 37.376C148.366 37.376 149.446 37.672 150.118 38.264C150.806 38.84 151.15 39.6 151.15 40.544V47.72C151.15 47.896 151.15 48.072 151.15 48.248C151.166 48.424 151.198 48.584 151.246 48.728C151.294 48.872 151.374 48.992 151.486 49.088C151.598 49.168 151.758 49.208 151.966 49.208C152.126 49.208 152.35 49.184 152.638 49.136V49.904C152.398 49.968 152.15 50 151.894 50C151.526 50 151.23 49.952 151.006 49.856C150.798 49.76 150.638 49.632 150.526 49.472C150.414 49.312 150.334 49.128 150.286 48.92C150.254 48.696 150.238 48.456 150.238 48.2V47.552ZM150.238 42.992C150.014 43.264 149.67 43.448 149.206 43.544C148.758 43.64 148.254 43.712 147.694 43.76L146.158 43.904C145.71 43.952 145.262 44.024 144.814 44.12C144.366 44.2 143.958 44.344 143.59 44.552C143.238 44.76 142.95 45.048 142.726 45.416C142.502 45.768 142.39 46.232 142.39 46.808C142.39 47.72 142.678 48.4 143.254 48.848C143.83 49.28 144.622 49.496 145.63 49.496C146.67 49.496 147.494 49.312 148.102 48.944C148.71 48.56 149.174 48.128 149.494 47.648C149.814 47.152 150.014 46.68 150.094 46.232C150.19 45.768 150.238 45.456 150.238 45.296V42.992ZM156.024 37.664H156.936V40.304H156.984C157.144 39.84 157.368 39.432 157.656 39.08C157.96 38.712 158.304 38.4 158.688 38.144C159.088 37.888 159.52 37.696 159.984 37.568C160.448 37.44 160.92 37.376 161.4 37.376C162.12 37.376 162.728 37.464 163.224 37.64C163.736 37.816 164.152 38.048 164.472 38.336C164.792 38.624 165.04 38.952 165.216 39.32C165.408 39.672 165.544 40.032 165.624 40.4C165.704 40.768 165.752 41.128 165.768 41.48C165.784 41.816 165.792 42.112 165.792 42.368V50H164.88V42.2C164.88 41.896 164.856 41.512 164.808 41.048C164.76 40.584 164.616 40.144 164.376 39.728C164.152 39.296 163.8 38.928 163.32 38.624C162.856 38.32 162.208 38.168 161.376 38.168C160.672 38.168 160.048 38.296 159.504 38.552C158.96 38.808 158.496 39.168 158.112 39.632C157.728 40.08 157.432 40.624 157.224 41.264C157.032 41.888 156.936 42.576 156.936 43.328V50H156.024V37.664ZM174.976 38.456H172.288V47.072C172.288 47.568 172.344 47.96 172.456 48.248C172.568 48.536 172.736 48.76 172.96 48.92C173.2 49.064 173.48 49.152 173.8 49.184C174.136 49.216 174.52 49.224 174.952 49.208V50C174.488 50.032 174.032 50.032 173.584 50C173.152 49.952 172.768 49.832 172.432 49.64C172.096 49.432 171.824 49.128 171.616 48.728C171.424 48.328 171.344 47.776 171.376 47.072V38.456H169.096V37.664H171.376V33.824H172.288V37.664H174.976V38.456ZM179.053 45.896C179.085 46.472 179.213 46.984 179.437 47.432C179.661 47.864 179.949 48.24 180.301 48.56C180.669 48.864 181.093 49.096 181.573 49.256C182.053 49.416 182.573 49.496 183.133 49.496C183.533 49.496 183.957 49.464 184.405 49.4C184.869 49.32 185.293 49.184 185.677 48.992C186.077 48.8 186.405 48.536 186.661 48.2C186.917 47.848 187.045 47.408 187.045 46.88C187.045 46.192 186.837 45.672 186.421 45.32C186.005 44.968 185.477 44.696 184.837 44.504C184.213 44.312 183.533 44.16 182.797 44.048C182.077 43.92 181.397 43.736 180.757 43.496C180.133 43.256 179.613 42.92 179.197 42.488C178.781 42.04 178.573 41.392 178.573 40.544C178.573 39.936 178.709 39.432 178.981 39.032C179.253 38.616 179.597 38.288 180.013 38.048C180.445 37.808 180.925 37.64 181.453 37.544C181.981 37.432 182.509 37.376 183.037 37.376C183.677 37.376 184.277 37.448 184.837 37.592C185.397 37.736 185.877 37.968 186.277 38.288C186.693 38.608 187.013 39.016 187.237 39.512C187.477 40.008 187.597 40.608 187.597 41.312H186.685C186.685 40.752 186.589 40.272 186.397 39.872C186.221 39.472 185.965 39.152 185.629 38.912C185.309 38.656 184.925 38.472 184.477 38.36C184.029 38.232 183.549 38.168 183.037 38.168C182.621 38.168 182.197 38.208 181.765 38.288C181.349 38.368 180.973 38.504 180.637 38.696C180.301 38.888 180.021 39.136 179.797 39.44C179.589 39.744 179.485 40.112 179.485 40.544C179.485 41.04 179.605 41.44 179.845 41.744C180.085 42.048 180.397 42.296 180.781 42.488C181.181 42.664 181.621 42.808 182.101 42.92C182.597 43.032 183.093 43.144 183.589 43.256C184.197 43.368 184.765 43.504 185.293 43.664C185.837 43.808 186.301 44.016 186.685 44.288C187.085 44.544 187.397 44.88 187.621 45.296C187.845 45.712 187.957 46.24 187.957 46.88C187.957 47.552 187.805 48.104 187.501 48.536C187.197 48.968 186.813 49.32 186.349 49.592C185.885 49.848 185.365 50.024 184.789 50.12C184.229 50.232 183.677 50.288 183.133 50.288C182.429 50.288 181.773 50.192 181.165 50C180.573 49.824 180.053 49.552 179.605 49.184C179.157 48.8 178.805 48.336 178.549 47.792C178.293 47.248 178.157 46.616 178.141 45.896H179.053ZM201.011 35.336V32.864H201.923V35.336H201.011ZM201.011 50V37.664H201.923V50H201.011ZM206.796 37.664H207.708V40.304H207.756C207.916 39.84 208.14 39.432 208.428 39.08C208.732 38.712 209.076 38.4 209.46 38.144C209.86 37.888 210.292 37.696 210.756 37.568C211.22 37.44 211.692 37.376 212.172 37.376C212.892 37.376 213.5 37.464 213.996 37.64C214.508 37.816 214.924 38.048 215.244 38.336C215.564 38.624 215.812 38.952 215.988 39.32C216.18 39.672 216.316 40.032 216.396 40.4C216.476 40.768 216.524 41.128 216.54 41.48C216.556 41.816 216.564 42.112 216.564 42.368V50H215.652V42.2C215.652 41.896 215.628 41.512 215.58 41.048C215.532 40.584 215.388 40.144 215.148 39.728C214.924 39.296 214.572 38.928 214.092 38.624C213.628 38.32 212.98 38.168 212.148 38.168C211.444 38.168 210.82 38.296 210.276 38.552C209.732 38.808 209.268 39.168 208.884 39.632C208.5 40.08 208.204 40.624 207.996 41.264C207.804 41.888 207.708 42.576 207.708 43.328V50H206.796V37.664ZM228.181 33.776V32.864H241.309V33.776H235.261V50H234.205V33.776H228.181ZM242.34 43.952V44.096C242.34 44.816 242.436 45.504 242.628 46.16C242.82 46.816 243.1 47.392 243.468 47.888C243.852 48.384 244.324 48.776 244.884 49.064C245.46 49.352 246.124 49.496 246.876 49.496C248.108 49.496 249.084 49.176 249.804 48.536C250.524 47.88 251.02 46.976 251.292 45.824H252.204C251.932 47.264 251.34 48.368 250.428 49.136C249.532 49.904 248.34 50.288 246.852 50.288C245.94 50.288 245.14 50.128 244.452 49.808C243.78 49.472 243.212 49.024 242.748 48.464C242.3 47.888 241.964 47.216 241.74 46.448C241.516 45.664 241.404 44.824 241.404 43.928C241.404 43.064 241.516 42.24 241.74 41.456C241.98 40.656 242.332 39.96 242.796 39.368C243.26 38.76 243.836 38.28 244.524 37.928C245.228 37.56 246.052 37.376 246.996 37.376C247.86 37.376 248.62 37.536 249.276 37.856C249.948 38.176 250.508 38.616 250.956 39.176C251.404 39.72 251.74 40.36 251.964 41.096C252.204 41.816 252.324 42.592 252.324 43.424C252.324 43.504 252.316 43.6 252.3 43.712C252.3 43.808 252.3 43.888 252.3 43.952H242.34ZM251.388 43.16C251.356 42.488 251.244 41.856 251.052 41.264C250.86 40.656 250.572 40.128 250.188 39.68C249.82 39.216 249.364 38.848 248.82 38.576C248.292 38.304 247.684 38.168 246.996 38.168C246.26 38.168 245.612 38.312 245.052 38.6C244.492 38.872 244.02 39.24 243.636 39.704C243.252 40.152 242.956 40.68 242.748 41.288C242.54 41.896 242.412 42.52 242.364 43.16H251.388ZM257.523 32.864V50H256.611V32.864H257.523ZM276.302 32.864H277.454L284.222 50H283.094L280.934 44.504H272.726L270.542 50H269.414L276.302 32.864ZM280.598 43.592L276.926 33.896H276.878L273.062 43.592H280.598ZM291.22 50H290.092L285.124 37.664H286.18L290.644 48.944H290.692L294.868 37.664H295.876L291.22 50ZM299.366 35.336V32.864H300.278V35.336H299.366ZM299.366 50V37.664H300.278V50H299.366ZM309.855 50H308.727L303.759 37.664H304.815L309.279 48.944H309.327L313.503 37.664H314.511L309.855 50Z" fill="black"/>
</svg>
